<svg xmlns="http://www.w3.org/2000/svg" width="16" height="16" viewBox="0 0 16 16"><path fill="#333" d="M2.88 8.73l4.483-4.352v4.509a.64.64 0 0 0 1.28 0V4.378l4.317 4.16a.64.64 0 0 0 .959-.846l.001.001-5.514-5.491a.637.637 0 0 0-.843 0l.001-.001-.029.026-5.616 5.67a.638.638 0 0 0 .498 1.041.637.637 0 0 0 .461-.196zM14.384 10.215l-2.429-.23a.643.643 0 0 0-.125 1.28h.003l.886.083a8.376 8.376 0 0 1-4.543 1.331h-.001c-1.805 0-3.738-.531-4.835-1.302l.838-.08a.643.643 0 1 0-.124-1.28h.003l-2.429.23a.64.64 0 0 0-.582.701v-.003l.23 2.429a.643.643 0 1 0 1.28-.124v.003l-.09-.934c1.309.96 3.565 1.635 5.706 1.635a9.616 9.616 0 0 0 5.388-1.647l-.034.022-.083.89a.643.643 0 0 0 1.28.125v-.003l.23-2.429a.64.64 0 0 0-.566-.694h-.003z"/></svg>