<svg data-name="图层 1" xmlns="http://www.w3.org/2000/svg" viewBox="0 0 60 60"><g data-name="图层 2"><g data-name="图层 1-2"><path d="M40.94 29.67H32.7v-7.06a2.35 2.35 0 0 0-4.71 0V32a2.37 2.37 0 0 0 .35 1.29l.12.12a3 3 0 0 0 1.41.94.71.71 0 0 1 .47.12h10.6a2.36 2.36 0 0 0 2.35-2.35 2.39 2.39 0 0 0-2.35-2.45zM25.53 8.49h9.41a2.35 2.35 0 1 0 0-4.71h-9.41a2.35 2.35 0 0 0 0 4.71z"/><path d="M30.35 8.49A23.59 23.59 0 1 0 54 32 23.55 23.55 0 0 0 30.35 8.49zm0 42.48a18.83 18.83 0 1 1 18.83-18.83A18.81 18.81 0 0 1 30.35 51z"/></g></g></svg>