<svg xmlns="http://www.w3.org/2000/svg" width="16" height="16" viewBox="0 0 16 16"><path fill="#333" d="M10.657 9.996a.681.681 0 0 0-.135.001h.003-9.058a.642.642 0 0 0 0 1.284h8.846l.07-.002a1.227 1.227 0 1 1-1.069 1.83l-.003-.006a.643.643 0 1 0-1.112.645l-.002-.003a2.51 2.51 0 1 0 2.461-3.739l-.011-.001zM12.648 3.397h-.001c-1.18 0-2.195.708-2.644 1.722l-.007.018a.642.642 0 0 0 1.173.521l.002-.004a1.605 1.605 0 1 1 1.561 2.247h-.264a.548.548 0 0 0-.147 0h.003H1.468a.642.642 0 0 0 0 1.284h11.18a2.9 2.9 0 0 0 0-5.798z"/><path fill="#333" d="M1.471 6.216h5.985a.681.681 0 0 0 .135-.001h-.003a2.51 2.51 0 1 0-2.444-3.768l-.006.012a.643.643 0 0 0 1.112.645l.002-.003a1.228 1.228 0 1 1 1.073 1.838H1.471a.642.642 0 0 0 0 1.284z"/></svg>